<svg width="50" height="35" viewBox="0 0 50 35" fill="none" xmlns="http://www.w3.org/2000/svg">
<path fill-rule="evenodd" clip-rule="evenodd" d="M29.8547 2.69623C27.8832 2.5605 25.9826 2.46409 24.9999 2.51283C23.041 2.41565 17.4343 2.89543 14.8883 3.11334L14.8709 3.11483L14.8654 3.11528C14.4198 3.15339 14.0707 3.18326 13.8531 3.20038C12.6882 3.29206 12.0956 3.71604 11.7944 4.28898L6.97413 13.227C6.95338 13.172 6.9314 13.1116 6.90821 13.0473C6.6891 12.4418 6.3415 11.4806 5.41773 11.2217C3.128 10.58 1.38423 11.2217 0.798288 11.6228C-1.05565 13.2373 0.843149 14.014 1.26734 14.1874L1.3003 14.201C1.85267 14.4302 3.71058 14.8313 5.06617 15.0605C5.26881 15.0947 5.38416 15.2133 5.41773 15.2897C3.91139 16.2637 3.45942 18.3836 3.45942 19.6441V33.3376C3.45942 34.7127 4.56416 35.0183 5.11652 34.9992H10.1376C11.976 34.9992 11.9964 34.6268 12.0852 33.011L12.0959 32.822C14.024 33.0511 21.502 33.2612 24.9999 33.3376C28.4979 33.2612 35.9762 33.0511 37.9043 32.822L37.9147 33.011C38.0035 34.6268 38.0239 34.9992 39.8623 34.9992H44.8834C45.4357 35.0183 46.5405 34.7127 46.5405 33.3376V20.6544C44.6377 21.8249 42.3977 22.5 39.9999 22.5C39.9285 22.5 39.8571 22.4994 39.786 22.4982C39.468 22.528 39.1815 22.5518 38.9587 22.5661C38.9083 22.9099 38.5369 23.5975 37.8539 23.8266C37.2012 24.0457 36.1181 23.9494 35.7952 23.8266C35.444 23.6929 34.8715 23.1735 34.7912 22.1651L34.8181 22.1404C34.9563 22.0139 35.1501 21.837 35.4095 21.6302C32.0025 20.2843 29.3286 17.4847 28.1524 13.996L24.9999 14.0292L8.68128 13.8573L12.9492 5.60678C13.2589 5.10189 13.6468 5.01741 14.1467 4.90843C14.2141 4.89374 14.2837 4.8786 14.3551 4.86194C16.3235 4.40357 22.2717 4.1744 24.9999 4.1171C25.9899 4.13789 27.4041 4.18131 28.898 4.25011C29.1793 3.7077 29.4998 3.18853 29.8547 2.69623ZM24.9999 26.9779C27.2762 26.997 32.0394 26.9779 32.8829 26.7487C33.7267 26.5195 33.6697 25.5455 33.5357 25.0871C33.4185 24.6288 33.124 23.5172 32.8829 22.738C32.6422 21.9588 31.7449 21.8022 31.3265 21.8213H18.6733C18.2549 21.8022 17.3577 21.9588 17.1169 22.738C16.8759 23.5172 16.5814 24.6288 16.4642 25.0871C16.3302 25.5455 16.2731 26.5195 17.1169 26.7487C17.9605 26.9779 22.7236 26.997 24.9999 26.9779ZM11.0412 22.5661C11.0916 22.9099 11.463 23.5975 12.1459 23.8266C12.7987 24.0457 13.8818 23.9494 14.2047 23.8266C14.5559 23.6929 15.1284 23.1735 15.2087 22.1651L15.1818 22.1404C14.3954 21.4218 11.8212 19.0691 5.56818 18.8993C5.9701 21.0192 6.27131 21.9932 7.37574 22.1651C8.25953 22.3026 10.1541 22.5088 11.0412 22.5661ZM10.1376 29.0978C10.1376 29.9521 9.53059 30.6447 8.78199 30.6447C8.03309 30.6447 7.42609 29.9521 7.42609 29.0978C7.42609 28.2434 8.03309 27.5508 8.78199 27.5508C9.53059 27.5508 10.1376 28.2434 10.1376 29.0978ZM39.8623 29.0978C39.8623 29.9521 40.4693 30.6447 41.2179 30.6447C41.9668 30.6447 42.5738 29.9521 42.5738 29.0978C42.5738 28.2434 41.9668 27.5508 41.2179 27.5508C40.4693 27.5508 39.8623 28.2434 39.8623 29.0978Z" fill="#494949"/>
<path d="M40 0C34.5789 0 30 4.57889 30 10C30 15.4211 34.5789 20 40 20C45.4211 20 50 15.4211 50 10C50 4.57889 45.4211 0 40 0ZM40 17.7778C35.7844 17.7778 32.2222 14.2156 32.2222 10C32.2222 5.78444 35.7844 2.22222 40 2.22222C44.2155 2.22222 47.7778 5.78444 47.7778 10C47.7778 14.2156 44.2155 17.7778 40 17.7778Z" fill="#494949"/>
<path d="M42.4182 11.0398C42.372 10.8835 42.316 10.7475 42.2502 10.632C42.1845 10.5164 42.0904 10.4036 41.9676 10.2933C41.845 10.183 41.7347 10.0942 41.6369 10.0267C41.5392 9.95912 41.405 9.88358 41.2343 9.79997C41.0637 9.71637 40.9286 9.65417 40.8291 9.61326C40.7295 9.57241 40.5854 9.51641 40.397 9.44529C40.2299 9.38133 40.1055 9.33243 40.0236 9.29867C39.9418 9.26488 39.8343 9.21691 39.701 9.15465C39.5677 9.09248 39.4681 9.03734 39.4024 8.98937C39.3366 8.9414 39.2664 8.88275 39.1917 8.81343C39.117 8.74411 39.0646 8.67032 39.0343 8.59211C39.0042 8.51388 38.989 8.42853 38.989 8.33608C38.989 8.09436 39.0957 7.89697 39.309 7.74413C39.5223 7.5913 39.7979 7.51484 40.1357 7.51484C40.285 7.51484 40.4371 7.53526 40.5917 7.57618C40.7462 7.61711 40.8787 7.66321 40.9889 7.71481C41.0993 7.7664 41.2032 7.8233 41.301 7.88548C41.3988 7.94773 41.4681 7.9948 41.509 8.0268C41.5499 8.05882 41.5758 8.08013 41.5864 8.09081C41.6327 8.12636 41.6806 8.13878 41.7303 8.12815C41.7836 8.12461 41.8246 8.09612 41.8531 8.04284L42.2851 7.26419C42.3278 7.19311 42.319 7.12555 42.2585 7.06151C42.2371 7.04018 42.2106 7.01532 42.1783 6.98685C42.1464 6.95838 42.0771 6.90685 41.9703 6.83214C41.8637 6.7575 41.7508 6.69083 41.6318 6.63216C41.5126 6.57354 41.3579 6.51395 41.1677 6.45354C40.9775 6.39304 40.781 6.35218 40.5783 6.33087V5.39219C40.5783 5.34244 40.5624 5.30153 40.5305 5.26952C40.4985 5.23757 40.4576 5.22153 40.4077 5.22153H39.6877C39.6415 5.22153 39.6015 5.2384 39.5677 5.27219C39.5339 5.30598 39.517 5.34595 39.517 5.39219V6.35217C38.9588 6.45879 38.5055 6.69701 38.157 7.06678C37.8086 7.43657 37.6344 7.86671 37.6344 8.35741C37.6344 8.50317 37.6495 8.64183 37.6798 8.77332C37.71 8.90492 37.7473 9.02314 37.7918 9.12801C37.8362 9.23296 37.8993 9.33603 37.9811 9.43739C38.0629 9.53871 38.1402 9.62583 38.2131 9.69868C38.286 9.77152 38.3811 9.8471 38.4984 9.92529C38.6158 10.0036 38.7162 10.0667 38.7998 10.1147C38.8834 10.1625 38.9945 10.2178 39.1331 10.2799C39.2717 10.3421 39.3811 10.3892 39.4611 10.4213C39.5411 10.4532 39.6504 10.4977 39.7892 10.5545C39.9811 10.6291 40.1234 10.6869 40.2158 10.7279C40.3083 10.7688 40.4256 10.8256 40.5679 10.8985C40.7101 10.9713 40.814 11.038 40.8799 11.0985C40.9456 11.159 41.0052 11.2336 41.0585 11.3225C41.1119 11.4113 41.1386 11.5056 41.1386 11.6052C41.1386 11.8861 41.0293 12.1029 40.8106 12.2557C40.5919 12.4086 40.3385 12.485 40.0506 12.485C39.9192 12.485 39.7875 12.4709 39.656 12.4425C39.1938 12.3499 38.7618 12.1277 38.36 11.7757L38.3494 11.7651C38.3174 11.726 38.2747 11.71 38.2214 11.7172C38.1645 11.7243 38.1236 11.7456 38.0987 11.7812L37.5494 12.5012C37.496 12.5723 37.4996 12.6451 37.5601 12.7198C37.5779 12.7411 37.609 12.7732 37.6534 12.8158C37.6979 12.8586 37.7806 12.9251 37.9014 13.016C38.0223 13.1067 38.1539 13.1919 38.2961 13.272C38.4383 13.352 38.6187 13.431 38.8374 13.5093C39.0561 13.5874 39.2827 13.6425 39.5174 13.6745V14.6078C39.5174 14.6541 39.5343 14.694 39.5681 14.7278C39.6019 14.7617 39.6418 14.7785 39.6881 14.7785H40.4081C40.458 14.7785 40.4989 14.7625 40.5308 14.7305C40.5628 14.6986 40.5787 14.6577 40.5787 14.6078V13.6745C41.1441 13.5821 41.6037 13.3394 41.9574 12.9465C42.3111 12.5536 42.4881 12.0852 42.4881 11.5412C42.4879 11.3635 42.4648 11.1964 42.4182 11.0398Z" fill="#494949"/>
</svg>
