<svg width="20" height="16" viewBox="0 0 20 16" fill="none" xmlns="http://www.w3.org/2000/svg">
<path d="M16.2745 3.88445H9.05882L7.62353 2.17856C7.57525 2.12053 7.50289 2.08798 7.42745 2.09033H1.60588C0.717059 2.0968 0 2.81915 0 3.70798V14.2001C0.00107843 15.092 0.723823 15.8147 1.61569 15.8158H16.2745C17.1664 15.8147 17.8891 15.092 17.8902 14.2001V5.50013C17.8891 4.60827 17.1664 3.88553 16.2745 3.88445Z" fill="#36334E"/>
<path d="M18.3941 1.79424H11.1765L9.74117 0.0883546C9.69288 0.0303154 9.62053 -0.00223361 9.54509 0.000119332H3.72548C2.91901 0.00144286 2.23705 0.597227 2.12744 1.3962H7.43528C7.71362 1.39551 7.97788 1.51835 8.15685 1.73149L9.38234 3.18835H16.2745C17.5493 3.19051 18.5821 4.2234 18.5843 5.49816V13.7099C19.3925 13.6091 19.9994 12.9225 20 12.108V3.40796C19.9979 2.52066 19.2814 1.80071 18.3941 1.79424Z" fill="#36334E"/>
</svg>
