<svg width="18" height="14" viewBox="0 0 18 14" fill="none" xmlns="http://www.w3.org/2000/svg">
<path fill-rule="evenodd" clip-rule="evenodd" d="M8.15294 3.43846H14.6471C15.4497 3.43942 16.1002 4.07918 16.1012 4.86865V12.5698C16.1002 13.3593 15.4497 13.999 14.6471 14H1.45412C0.651441 13.999 0.000970588 13.3593 0 12.5698V3.28225C0 2.49547 0.645353 1.85605 1.44529 1.85033H6.68471C6.7526 1.84824 6.81772 1.87705 6.86118 1.92843L8.15294 3.43846ZM7.34523 5.56642H8.69646V8.22439H11.3989V9.55338H8.69646V12.2114H7.34523V9.55338H4.64279V8.22439H7.34523V5.56642Z" fill="white"/>
<path d="M16.5548 1.58824H10.0589L8.76715 0.0782106C8.72369 0.0268349 8.65858 -0.00197717 8.59068 0.000105632H3.35303C2.62721 0.00127721 2.01344 0.52866 1.91479 1.2359H6.69185C6.94235 1.23529 7.18019 1.34403 7.34127 1.5327L8.44421 2.8223H14.6471C15.7944 2.82421 16.724 3.73852 16.726 4.86692V12.1359C17.4534 12.0466 17.9995 11.4388 18.0001 10.7179V3.0167C17.9982 2.23126 17.3533 1.59397 16.5548 1.58824Z" fill="white"/>
</svg>
