<svg width="20" height="23" viewBox="0 0 20 23" fill="none" xmlns="http://www.w3.org/2000/svg">
<path fill-rule="evenodd" clip-rule="evenodd" d="M3.33333 0H16.6667C17.5507 0 18.3986 0.346173 19.0237 0.962363C19.6488 1.57855 20 2.41429 20 3.28571V19.7143C20 20.5857 19.6488 21.4214 19.0237 22.0376C18.3986 22.6538 17.5507 23 16.6667 23H3.33333C2.44928 23 1.60143 22.6538 0.976311 22.0376C0.351189 21.4214 0 20.5857 0 19.7143V3.28571C0 2.41429 0.351189 1.57855 0.976311 0.962363C1.60143 0.346173 2.44928 0 3.33333 0ZM3.33333 1.64286C2.89131 1.64286 2.46738 1.81594 2.15482 2.12404C1.84226 2.43213 1.66667 2.85 1.66667 3.28571V19.7143C1.66667 20.15 1.84226 20.5679 2.15482 20.876C2.46738 21.1841 2.89131 21.3571 3.33333 21.3571H16.6667C17.1087 21.3571 17.5326 21.1841 17.8452 20.876C18.1577 20.5679 18.3333 20.15 18.3333 19.7143V3.28571C18.3333 2.85 18.1577 2.43213 17.8452 2.12404C17.5326 1.81594 17.1087 1.64286 16.6667 1.64286H3.33333Z" fill="#36334E"/>
<path d="M9.91675 9.19978V12.0748H12.8334V10.9248H11.0834V9.19978H9.91675Z" fill="#36334E"/>
<path d="M15.3369 9.48556C15.0738 8.87034 14.6918 8.31142 14.2123 7.83991C13.4863 7.12436 12.5636 6.6342 11.5581 6.43001C10.8602 6.28999 10.1408 6.28999 9.44292 6.43001C8.43648 6.63289 7.51294 7.12346 6.78759 7.84049C6.30919 8.3125 5.92736 8.87081 5.66292 9.48499C5.3894 10.1224 5.24894 10.8077 5.24992 11.4998L5.2505 11.5142H4.08325L5.83325 13.7998L7.58325 11.5142H6.41717L6.41659 11.4998C6.41491 10.6979 6.65777 9.91398 7.11367 9.24981C7.40774 8.82126 7.78214 8.45201 8.21675 8.16191C8.65889 7.86832 9.15482 7.66247 9.67684 7.55586C10.7376 7.34087 11.8417 7.5499 12.7462 8.137C13.6507 8.7241 14.2817 9.64121 14.5004 10.6867C14.6105 11.2226 14.6105 11.7747 14.5004 12.3105C14.3937 12.8255 14.1847 13.3146 13.8856 13.7498C13.7398 13.9631 13.5723 14.1638 13.3874 14.3455C13.0148 14.7123 12.5742 15.0053 12.0895 15.2085C11.8427 15.3114 11.5861 15.39 11.3236 15.4431C10.7802 15.5515 10.2202 15.5515 9.67684 15.4431C9.15492 15.3377 8.65919 15.1319 8.21792 14.8377C8.00089 14.6931 7.79834 14.5285 7.613 14.346L6.78817 15.1591C7.27532 15.6399 7.85394 16.0213 8.49086 16.2814C9.12778 16.5415 9.8105 16.6752 10.4999 16.6748C11.2017 16.6745 11.8964 16.5363 12.5433 16.2683C13.4811 15.8772 14.2834 15.2259 14.8528 14.3938C15.4387 13.5393 15.7512 12.5312 15.7499 11.4998C15.7514 10.8078 15.6109 10.1227 15.3369 9.48556Z" fill="#36334E"/>
</svg>
