<svg width="35" height="35" viewBox="0 0 35 35" fill="none" xmlns="http://www.w3.org/2000/svg">
<path d="M34.5332 14.8401L30.6248 13.6734C30.3546 12.73 29.983 11.8186 29.5165 10.9551L31.4298 7.37347C31.5016 7.23828 31.5279 7.08354 31.5048 6.93222C31.4817 6.7809 31.4104 6.64107 31.3015 6.53348L28.5132 3.73349C28.4056 3.62461 28.2658 3.55332 28.1144 3.5302C27.9631 3.50708 27.8084 3.53337 27.6732 3.60516L24.1149 5.50682C23.2429 5.01759 22.3195 4.62632 21.3616 4.34016L20.1949 0.47851C20.1455 0.336196 20.0523 0.21321 19.9286 0.127253C19.8049 0.0412972 19.6572 -0.00319577 19.5066 0.000178696H15.5633C15.4118 0.000884028 15.2644 0.0499187 15.1427 0.140147C15.021 0.230375 14.9313 0.357087 14.8866 0.501843L13.7199 4.35182C12.754 4.63646 11.8227 5.02776 10.9433 5.51848L7.4433 3.62849C7.3081 3.5567 7.15336 3.53041 7.00204 3.55353C6.85072 3.57665 6.71089 3.64794 6.6033 3.75683L3.76831 6.52181C3.65943 6.6294 3.58814 6.76924 3.56502 6.92055C3.5419 7.07187 3.56819 7.22661 3.63998 7.36181L5.52997 10.8618C5.04004 11.7375 4.64876 12.6648 4.36331 13.6268L0.501664 14.7934C0.356908 14.8381 0.230196 14.9279 0.139968 15.0496C0.04974 15.1713 0.000705332 15.3186 0 15.4701V19.4134C0.000705332 19.5649 0.04974 19.7122 0.139968 19.8339C0.230196 19.9556 0.356908 20.0454 0.501664 20.0901L4.38664 21.2567C4.67521 22.2027 5.06643 23.1142 5.55331 23.9751L3.63998 27.6384C3.56819 27.7736 3.5419 27.9283 3.56502 28.0796C3.58814 28.2309 3.65943 28.3708 3.76831 28.4784L6.55663 31.2667C6.66422 31.3756 6.80406 31.4469 6.95537 31.47C7.10669 31.4931 7.26143 31.4668 7.39663 31.395L11.0016 29.47C11.8544 29.9302 12.754 30.2978 13.6849 30.5667L14.8516 34.4983C14.8963 34.6431 14.986 34.7698 15.1077 34.86C15.2294 34.9503 15.3768 34.9993 15.5283 35H19.4716C19.6231 34.9993 19.7704 34.9503 19.8921 34.86C20.0138 34.7698 20.1035 34.6431 20.1482 34.4983L21.3149 30.555C22.2379 30.2848 23.1296 29.9172 23.9749 29.4584L27.6032 31.395C27.7384 31.4668 27.8931 31.4931 28.0444 31.47C28.1958 31.4469 28.3356 31.3756 28.4432 31.2667L31.2315 28.4784C31.3404 28.3708 31.4117 28.2309 31.4348 28.0796C31.4579 27.9283 31.4316 27.7736 31.3598 27.6384L29.4232 24.0217C29.8868 23.1732 30.2583 22.2776 30.5315 21.3501L34.4632 20.1834C34.6079 20.1387 34.7346 20.049 34.8249 19.9273C34.9151 19.8056 34.9641 19.6582 34.9648 19.5067V15.5284C34.9717 15.3834 34.934 15.2397 34.8569 15.1166C34.7797 14.9936 34.6667 14.8971 34.5332 14.8401ZM17.5349 23.9167C16.2658 23.9167 15.0252 23.5404 13.97 22.8353C12.9148 22.1303 12.0924 21.1281 11.6067 19.9556C11.1211 18.7831 10.994 17.493 11.2416 16.2483C11.4892 15.0036 12.1003 13.8602 12.9977 12.9628C13.895 12.0655 15.0384 11.4543 16.2831 11.2068C17.5278 10.9592 18.818 11.0862 19.9904 11.5719C21.1629 12.0576 22.1651 12.88 22.8701 13.9352C23.5752 14.9904 23.9515 16.231 23.9515 17.5001C23.9515 19.2019 23.2755 20.834 22.0722 22.0373C20.8688 23.2407 19.2367 23.9167 17.5349 23.9167Z" fill="#494949"/>
</svg>
