<svg width="24" height="18" viewBox="0 0 24 18" fill="none" xmlns="http://www.w3.org/2000/svg">
<path fill-rule="evenodd" clip-rule="evenodd" d="M4.1381 17.9999C4.35758 17.9999 4.56807 17.9137 4.72326 17.7603C4.87846 17.6068 4.96565 17.3987 4.96565 17.1818V0.819458C4.96565 0.60248 4.87846 0.39439 4.72326 0.240963C4.56807 0.087537 4.35758 0.00134277 4.1381 0.00134277C3.91862 0.00134277 3.70813 0.087537 3.55293 0.240963C3.39774 0.39439 3.31055 0.60248 3.31055 0.819458V17.1818C3.31055 17.3987 3.39774 17.6068 3.55293 17.7603C3.70813 17.9137 3.91862 17.9999 4.1381 17.9999Z" fill="#191919"/>
<path fill-rule="evenodd" clip-rule="evenodd" d="M8.0349 4.67127C8.11197 4.59527 8.17311 4.50499 8.21483 4.4056C8.25655 4.3062 8.27803 4.19965 8.27803 4.09204C8.27803 3.98443 8.25655 3.87788 8.21483 3.77848C8.17311 3.67909 8.11197 3.58881 8.0349 3.51281L4.7247 0.240352C4.64783 0.164164 4.55651 0.103717 4.45597 0.0624734C4.35543 0.0212299 4.24765 0 4.1388 0C4.02994 0 3.92216 0.0212299 3.82162 0.0624734C3.72108 0.103717 3.62976 0.164164 3.55289 0.240352L0.24269 3.51281C0.165748 3.58888 0.104714 3.67918 0.0630731 3.77856C0.0214323 3.87795 1.62144e-09 3.98447 0 4.09204C-1.62144e-09 4.19961 0.0214323 4.30613 0.0630731 4.40551C0.104714 4.5049 0.165748 4.5952 0.24269 4.67127C0.319632 4.74733 0.410976 4.80767 0.511506 4.84883C0.612036 4.89 0.719783 4.91119 0.828595 4.91119C0.937408 4.91119 1.04516 4.89 1.14569 4.84883C1.24622 4.80767 1.33756 4.74733 1.4145 4.67127L4.1388 1.97639L6.86309 4.67127C6.93996 4.74745 7.03128 4.8079 7.13182 4.84914C7.23236 4.89039 7.34015 4.91162 7.449 4.91162C7.55785 4.91162 7.66563 4.89039 7.76617 4.84914C7.86671 4.8079 7.95803 4.74745 8.0349 4.67127ZM10.7592 12.2732C10.7592 12.0562 10.8464 11.8481 11.0016 11.6947C11.1568 11.5413 11.3673 11.4551 11.5867 11.4551H16.552C16.7715 11.4551 16.982 11.5413 17.1372 11.6947C17.2924 11.8481 17.3796 12.0562 17.3796 12.2732C17.3796 12.4902 17.2924 12.6983 17.1372 12.8517C16.982 13.0051 16.7715 13.0913 16.552 13.0913H11.5867C11.3673 13.0913 11.1568 13.0051 11.0016 12.8517C10.8464 12.6983 10.7592 12.4902 10.7592 12.2732ZM10.7592 7.3645C10.7592 7.14752 10.8464 6.93943 11.0016 6.78601C11.1568 6.63258 11.3673 6.54638 11.5867 6.54638H19.8622C20.0817 6.54638 20.2922 6.63258 20.4474 6.78601C20.6026 6.93943 20.6898 7.14752 20.6898 7.3645C20.6898 7.58148 20.6026 7.78957 20.4474 7.943C20.2922 8.09642 20.0817 8.18262 19.8622 8.18262H11.5867C11.3673 8.18262 11.1568 8.09642 11.0016 7.943C10.8464 7.78957 10.7592 7.58148 10.7592 7.3645ZM10.7592 2.45581C10.7592 2.23883 10.8464 2.03074 11.0016 1.87731C11.1568 1.72389 11.3673 1.63769 11.5867 1.63769H23.1724C23.3919 1.63769 23.6024 1.72389 23.7576 1.87731C23.9128 2.03074 24 2.23883 24 2.45581C24 2.67279 23.9128 2.88088 23.7576 3.0343C23.6024 3.18773 23.3919 3.27392 23.1724 3.27392H11.5867C11.3673 3.27392 11.1568 3.18773 11.0016 3.0343C10.8464 2.88088 10.7592 2.67279 10.7592 2.45581ZM10.7592 17.1819C10.7592 16.9649 10.8464 16.7568 11.0016 16.6034C11.1568 16.45 11.3673 16.3638 11.5867 16.3638H13.2418C13.4613 16.3638 13.6718 16.45 13.827 16.6034C13.9822 16.7568 14.0694 16.9649 14.0694 17.1819C14.0694 17.3989 13.9822 17.607 13.827 17.7604C13.6718 17.9138 13.4613 18 13.2418 18H11.5867C11.3673 18 11.1568 17.9138 11.0016 17.7604C10.8464 17.607 10.7592 17.3989 10.7592 17.1819Z" fill="#191919"/>
</svg>
