<svg width="20" height="14" viewBox="0 0 20 14" fill="none" xmlns="http://www.w3.org/2000/svg">
<path fill-rule="evenodd" clip-rule="evenodd" d="M11.9419 1.07849C11.1533 1.0242 10.393 0.985635 9.99998 1.00513C9.21641 0.96626 6.97373 1.15817 5.9553 1.24534L5.94834 1.24593L5.94615 1.24611C5.76792 1.26136 5.62827 1.2733 5.54124 1.28015C5.0753 1.31682 4.83824 1.48642 4.71775 1.71559L2.78965 5.29081C2.78135 5.26879 2.77256 5.24466 2.76328 5.21891C2.67564 4.97673 2.5366 4.59226 2.16709 4.48868C1.2512 4.23199 0.55369 4.48868 0.319315 4.6491C-0.422262 5.29493 0.337259 5.60559 0.506937 5.67497L0.520121 5.68042C0.741068 5.77209 1.48423 5.93252 2.02647 6.02419C2.10752 6.03788 2.15367 6.08531 2.16709 6.11586C1.56455 6.50547 1.38377 7.35344 1.38377 7.85763V13.335C1.38377 13.8851 1.82566 14.0073 2.04661 13.9997H4.05503C4.79038 13.9997 4.79856 13.8507 4.83409 13.2044L4.83836 13.1288C5.6096 13.2205 8.60081 13.3045 9.99998 13.335C11.3991 13.3045 14.3905 13.2205 15.1617 13.1288L15.1659 13.2044C15.2014 13.8507 15.2096 13.9997 15.9449 13.9997H17.9533C18.1743 14.0073 18.6162 13.8851 18.6162 13.335V8.26176C17.8551 8.72996 16.9591 9 16 9C15.9714 9 15.9429 8.99976 15.9144 8.99928C15.7872 9.01118 15.6726 9.0207 15.5835 9.02646C15.5633 9.16397 15.4148 9.43898 15.1416 9.53065C14.8805 9.61828 14.4472 9.57977 14.3181 9.53065C14.1776 9.47718 13.9486 9.26939 13.9165 8.86603L13.9272 8.85615C13.9825 8.80558 14.06 8.73479 14.1638 8.65207C12.801 8.11373 11.7314 6.99387 11.261 5.59838L9.99998 5.61166L3.47251 5.54291L5.17967 2.24271C5.30357 2.04076 5.45872 2.00696 5.65867 1.96337C5.68565 1.9575 5.71348 1.95144 5.74204 1.94478C6.5294 1.76143 8.90867 1.66976 9.99998 1.64684C10.396 1.65516 10.9616 1.67252 11.5592 1.70004C11.6717 1.48308 11.7999 1.27541 11.9419 1.07849ZM9.99998 10.7911C10.9105 10.7988 12.8158 10.7911 13.1532 10.6995C13.4907 10.6078 13.4679 10.2182 13.4143 10.0348C13.3674 9.8515 13.2496 9.40689 13.1532 9.09521C13.0569 8.78352 12.698 8.72088 12.5306 8.72852H7.46934C7.30198 8.72088 6.94309 8.78352 6.84678 9.09521C6.75035 9.40689 6.63255 9.8515 6.58567 10.0348C6.53208 10.2182 6.50926 10.6078 6.84678 10.6995C7.18418 10.7911 9.08946 10.7988 9.99998 10.7911ZM4.41648 9.02646C4.43662 9.16397 4.58518 9.43898 4.85838 9.53065C5.11949 9.61828 5.55271 9.57977 5.68186 9.53065C5.82237 9.47718 6.05137 9.26939 6.08348 8.86603L6.07273 8.85615C5.75816 8.56872 4.72849 7.62766 2.22727 7.5597C2.38804 8.40767 2.50852 8.79728 2.9503 8.86603C3.30381 8.92103 4.06162 9.00354 4.41648 9.02646ZM4.05503 11.6391C4.05503 11.9809 3.81224 12.2579 3.5128 12.2579C3.21324 12.2579 2.97044 11.9809 2.97044 11.6391C2.97044 11.2974 3.21324 11.0203 3.5128 11.0203C3.81224 11.0203 4.05503 11.2974 4.05503 11.6391ZM15.9449 11.6391C15.9449 11.9809 16.1877 12.2579 16.4872 12.2579C16.7867 12.2579 17.0295 11.9809 17.0295 11.6391C17.0295 11.2974 16.7867 11.0203 16.4872 11.0203C16.1877 11.0203 15.9449 11.2974 15.9449 11.6391Z" fill="#18A0FB"/>
<path d="M16 0C13.8316 0 12 1.83156 12 4C12 6.16844 13.8316 8 16 8C18.1684 8 20 6.16844 20 4C20 1.83156 18.1684 0 16 0ZM16 7.11111C14.3138 7.11111 12.8889 5.68622 12.8889 4C12.8889 2.31378 14.3138 0.888889 16 0.888889C17.6862 0.888889 19.1111 2.31378 19.1111 4C19.1111 5.68622 17.6862 7.11111 16 7.11111Z" fill="#18A0FB"/>
<path d="M16.4445 1.77778H15.5556V3.55555H13.7778V4.44444H15.5556V6.22222H16.4445V4.44444H18.2223V3.55555H16.4445V1.77778Z" fill="#18A0FB"/>
</svg>
