<svg width="20" height="12" viewBox="0 0 20 12" fill="none" xmlns="http://www.w3.org/2000/svg">
<path fill-rule="evenodd" clip-rule="evenodd" d="M5.74212 0.872098C6.52942 0.702857 8.90875 0.618237 10 0.597082V0.00473759C9.21647 -0.031146 6.9738 0.146007 5.95528 0.226462C5.77287 0.240871 5.62971 0.252176 5.54125 0.258603C5.07529 0.292451 4.83829 0.448999 4.71779 0.660546L2.78969 3.96075C2.78133 3.94042 2.7726 3.91814 2.76329 3.89438C2.6757 3.67082 2.53666 3.31593 2.1671 3.22032C1.25127 2.98338 0.553661 3.22032 0.319335 3.3684C-0.422289 3.96455 0.337288 4.25132 0.50692 4.31536L0.520179 4.32038C0.741081 4.40501 1.4842 4.55309 2.02651 4.63771C2.10755 4.65035 2.15368 4.69413 2.16707 4.72234C1.56454 5.08197 1.38381 5.86471 1.38381 6.33012V11.3862C1.38381 11.8939 1.82566 12.0067 2.04659 11.9997H4.05503C4.79038 11.9997 4.79857 11.8622 4.83412 11.2656L4.83832 11.1958C5.60956 11.2804 8.60079 11.358 10 11.3862V9.03798C9.08951 9.04503 7.18417 9.03798 6.84676 8.95336C6.50934 8.86874 6.5321 8.5091 6.58566 8.33986C6.63252 8.17062 6.75035 7.76021 6.84676 7.4725C6.94316 7.18479 7.302 7.12697 7.46937 7.13402H10V4.25692L3.47258 4.19345L5.17973 1.14712C5.30362 0.960696 5.4587 0.929503 5.65874 0.889266C5.6857 0.883842 5.71348 0.878253 5.74212 0.872098ZM4.85839 7.87445C4.58524 7.78983 4.43661 7.53597 4.41653 7.40904C4.06171 7.38788 3.30386 7.31173 2.95037 7.26095C2.50852 7.19749 2.38801 6.83785 2.22733 6.05511C4.72849 6.11784 5.75821 6.98651 6.07271 7.25183L6.08353 7.26095C6.0514 7.63328 5.82244 7.82509 5.68185 7.87445C5.55273 7.91979 5.11948 7.95534 4.85839 7.87445ZM3.51278 10.3919C3.81227 10.3919 4.05506 10.1362 4.05506 9.82072C4.05506 9.50526 3.81227 9.24953 3.51278 9.24953C3.21329 9.24953 2.9705 9.50526 2.9705 9.82072C2.9705 10.1362 3.21329 10.3919 3.51278 10.3919Z" fill="#36334E"/>
<path fill-rule="evenodd" clip-rule="evenodd" d="M14.2579 0.872098C13.4706 0.702857 11.0913 0.618237 10 0.597082V0.00473759C10.7835 -0.031146 13.0262 0.146007 14.0447 0.226462C14.2271 0.240871 14.3703 0.252176 14.4588 0.258603C14.9247 0.292451 15.1617 0.448999 15.2822 0.660546L17.2103 3.96075C17.2187 3.94042 17.2274 3.91814 17.2367 3.89438C17.3243 3.67082 17.4633 3.31593 17.8329 3.22032C18.7487 2.98338 19.4463 3.22032 19.6807 3.3684C20.4223 3.96455 19.6627 4.25132 19.4931 4.31536L19.4798 4.32038C19.2589 4.40501 18.5158 4.55309 17.9735 4.63771C17.8925 4.65035 17.8463 4.69413 17.8329 4.72234C18.4355 5.08197 18.6162 5.86471 18.6162 6.33012V11.3862C18.6162 11.8939 18.1743 12.0067 17.9534 11.9997H15.945C15.2096 11.9997 15.2014 11.8622 15.1659 11.2656L15.1617 11.1958C14.3904 11.2804 11.3992 11.358 10 11.3862V9.03798C10.9105 9.04503 12.8158 9.03798 13.1532 8.95336C13.4907 8.86874 13.4679 8.5091 13.4143 8.33986C13.3675 8.17062 13.2497 7.76021 13.1532 7.4725C13.0568 7.18479 12.698 7.12697 12.5306 7.13402H10V4.25692L16.5274 4.19345L14.8203 1.14712C14.6964 0.960696 14.5413 0.929503 14.3413 0.889266C14.3143 0.883842 14.2865 0.878253 14.2579 0.872098ZM15.1416 7.87445C15.4148 7.78983 15.5634 7.53597 15.5835 7.40904C15.9383 7.38788 16.6961 7.31173 17.0496 7.26095C17.4915 7.19749 17.612 6.83785 17.7727 6.05511C15.2715 6.11784 14.2418 6.98651 13.9273 7.25183L13.9165 7.26095C13.9486 7.63328 14.1776 7.82509 14.3182 7.87445C14.4473 7.91979 14.8805 7.95534 15.1416 7.87445ZM16.4872 10.3919C16.1877 10.3919 15.9449 10.1362 15.9449 9.82072C15.9449 9.50526 16.1877 9.24953 16.4872 9.24953C16.7867 9.24953 17.0295 9.50526 17.0295 9.82072C17.0295 10.1362 16.7867 10.3919 16.4872 10.3919Z" fill="#36334E"/>
</svg>
